<?xml version="1.0" encoding="UTF-8" standalone="yes"?>
<svg width="248" height="64" viewBox="0 0 248 64" fill="none" xmlns="http://www.w3.org/2000/svg">
  <g clip-path="url(#clip0_13_8847)">
    <path d="M54.65 15.78L27.33 0L0 15.78V47.33L27.33 63.11L53.69 47.89L53.88 47.87V47.79L54.66 47.34V15.78H54.65ZM9.4 33.45L44.33 24.97L36.93 47.54L9.39 33.45H9.4ZM8.81 31.8L27.45 2.55L44.11 23.22L8.81 31.79V31.8ZM45.75 22.48L30.94 4.1L52.31 16.44L45.74 22.47L45.75 22.48ZM7.13 31.18L1.94 16.67L24.78 3.48L7.13 31.18ZM5.97 33.12L1.75 42.81V21.31L5.97 33.12ZM7.09 34.92L24.33 59.36L2.05 46.5L7.09 34.93V34.92ZM9.66 35.54L36.12 49.08L27.35 60.62L9.66 35.54ZM45.68 26.45L52.65 46.24L38.7 47.76L45.68 26.45ZM46.67 23.99L52.91 18.26V41.71L46.67 23.99ZM30.65 59.17L37.92 49.59L49.39 48.34L30.65 59.16V59.17Z" fill="#FFC20E"/>
    <path d="M67.7299 16.51H64.6399V33.1H67.7299V16.51Z" fill="white"/>
    <path d="M78.3699 33.1V30.01H70.0699V33.1H78.3699Z" fill="white"/>
    <path d="M127.39 16.6801L122.39 26.5701L117.4 16.6801H114.01L122.39 33.1901L130.77 16.6801H127.39Z" fill="white"/>
    <path d="M114.01 21.91L117.11 27.96V33.1H114.01V21.91Z" fill="white"/>
    <path d="M130.77 21.91L127.68 27.96V33.1H130.77V21.91Z" fill="white"/>
    <path d="M94.8199 33.27C91.7699 33.27 88.6899 30.99 88.6899 25.9V16.6H91.6999V25.9C91.6999 28.59 92.8999 30.26 94.8199 30.26V33.27Z" fill="white"/>
    <path d="M97.5698 33.27V30.26C99.4898 30.26 100.69 28.59 100.69 25.9V16.6H103.7V25.9C103.7 30.99 100.62 33.27 97.5698 33.27Z" fill="white"/>
    <path d="M208.45 21.91L211.54 26.1V33.1H208.45V21.91Z" fill="white"/>
    <path d="M222.95 27.8701L219.86 23.6701V16.6801H222.95V27.8701Z" fill="white"/>
    <path d="M208.63 16.6801L219.03 33.1001H222.69L212.29 16.6801H208.63Z" fill="white"/>
    <path d="M233.26 21.91L236.35 26.1V33.1H233.26V21.91Z" fill="white"/>
    <path d="M247.76 27.8701L244.67 23.6701V16.6801H247.76V27.8701Z" fill="white"/>
    <path d="M233.44 16.6801L243.84 33.1001H247.5L237.1 16.6801H233.44Z" fill="white"/>
    <path d="M143.99 16.7H141.09V33.0999H143.99V16.7Z" fill="white"/>
    <path d="M190.6 16.7001V19.7701C193.01 19.9901 194.9 22.0101 194.9 24.4701V25.3001C194.9 27.7601 193.01 29.7901 190.6 30.0001V33.0701C194.8 32.8101 198.14 29.3201 198.14 25.0501V24.7101C198.14 20.4401 194.81 16.9601 190.6 16.6901V16.7001Z" fill="white"/>
    <path d="M188.3 30.0001C185.92 29.7601 184.06 27.7501 184.06 25.3001V24.4701C184.06 22.0201 185.92 20.0101 188.3 19.7701V16.7001C184.12 16.9901 180.82 20.4601 180.82 24.7201V25.0601C180.82 29.3101 184.12 32.7801 188.3 33.0801V30.0101V30.0001Z" fill="white"/>
    <path d="M162 30.05C159.62 29.81 157.76 27.8 157.76 25.35V24.52C157.76 22.07 159.62 20.06 162 19.82V16.75C157.82 17.04 154.52 20.51 154.52 24.77V25.11C154.52 29.36 157.82 32.83 162 33.13V30.06V30.05Z" fill="white"/>
    <path d="M167.89 27.83C167.13 29.06 165.82 29.92 164.3 30.05V33.12C166.98 32.95 169.3 31.47 170.64 29.31L167.89 27.83Z" fill="white"/>
    <path d="M167.81 21.91L170.61 20.5C169.27 18.37 166.96 16.91 164.3 16.74V19.81C165.77 19.94 167.04 20.74 167.81 21.91Z" fill="white"/>
    <path d="M139.25 48.75C138.2 49.21 137.27 49.44 136.45 49.44C135.63 49.44 135.04 49.21 134.62 48.75C134.2 48.29 133.98 47.63 133.98 46.78C133.98 45.88 134.2 45.02 134.65 44.22C135.09 43.42 135.68 42.76 136.42 42.27C137.16 41.78 137.91 41.53 138.69 41.53C139.22 41.53 139.81 41.61 140.46 41.78L140.24 42.88C139.69 42.67 139.17 42.56 138.66 42.56C138.1 42.56 137.58 42.73 137.09 43.07C136.61 43.41 136.21 43.92 135.9 44.6C135.59 45.28 135.44 45.98 135.44 46.7C135.44 47.27 135.57 47.68 135.85 47.93C136.12 48.18 136.45 48.3 136.85 48.3C137.05 48.3 137.28 48.27 137.56 48.2C137.84 48.14 138.14 48.05 138.47 47.93C138.8 47.82 139.14 47.66 139.52 47.44L139.25 48.75Z" fill="#FFC20E"/>
    <path d="M143.64 49.44C142.8 49.44 142.17 49.2 141.76 48.71C141.35 48.22 141.14 47.61 141.14 46.89C141.14 45.99 141.35 45.1 141.79 44.22C142.22 43.34 142.76 42.67 143.41 42.21C144.06 41.75 144.82 41.52 145.69 41.52C146.56 41.52 147.2 41.77 147.6 42.26C148 42.75 148.2 43.35 148.2 44.07C148.2 44.96 147.99 45.85 147.56 46.72C147.13 47.59 146.6 48.26 145.96 48.74C145.32 49.22 144.54 49.45 143.64 49.45V49.44ZM143.95 48.41C144.72 48.41 145.38 47.99 145.92 47.15C146.46 46.31 146.74 45.38 146.74 44.36C146.74 43.76 146.62 43.3 146.39 43C146.16 42.7 145.81 42.55 145.35 42.55C144.61 42.55 143.97 42.97 143.42 43.8C142.87 44.63 142.6 45.56 142.6 46.59C142.6 47.19 142.72 47.64 142.94 47.94C143.17 48.25 143.5 48.4 143.93 48.4L143.95 48.41Z" fill="#FFC20E"/>
    <path d="M149.35 49.27L150.85 41.7H152.23L151.62 44.8C152.17 43.87 152.77 43.09 153.44 42.47C154.1 41.85 154.77 41.53 155.46 41.53C155.83 41.53 156.13 41.64 156.36 41.87C156.59 42.1 156.71 42.46 156.71 42.97C156.71 43.29 156.68 43.59 156.63 43.86L155.55 49.28H154.17L155.25 43.81C155.27 43.69 155.29 43.56 155.29 43.43C155.29 43.27 155.25 43.14 155.16 43.05C155.08 42.95 154.97 42.9 154.85 42.9C154.48 42.9 154.02 43.19 153.46 43.78C152.9 44.37 152.17 45.31 151.26 46.61L150.73 49.27H149.35Z" fill="#FFC20E"/>
    <path d="M161.81 49.3C161.48 49.39 161.18 49.44 160.9 49.44C160.25 49.44 159.75 49.29 159.41 48.99C159.06 48.69 158.89 48.3 158.89 47.84C158.89 47.54 158.93 47.18 159.01 46.75L159.81 42.73H158.68L158.88 41.7H160.02L160.29 40.33L161.7 40.16L161.39 41.7H163.32L163.1 42.73H161.19L160.36 46.89C160.28 47.27 160.24 47.53 160.24 47.65C160.24 47.85 160.31 48.02 160.45 48.18C160.59 48.33 160.84 48.41 161.2 48.41C161.44 48.41 161.71 48.36 162.02 48.27L161.82 49.3H161.81Z" fill="#FFC20E"/>
    <path d="M163.68 49.27L165.18 41.7H166.56L165.95 44.8C166.31 44.18 166.73 43.6 167.22 43.06C167.71 42.52 168.14 42.13 168.53 41.89C168.92 41.65 169.34 41.53 169.81 41.53C169.91 41.53 170.03 41.53 170.16 41.55L169.86 43.06C169.66 42.99 169.48 42.96 169.33 42.96C168.88 42.96 168.4 43.21 167.91 43.7C167.42 44.19 166.64 45.17 165.6 46.62L165.06 49.28H163.68V49.27Z" fill="#FFC20E"/>
    <path d="M170.49 49.27L171.99 41.7H173.38L171.87 49.27H170.49ZM172.27 40.32L172.55 38.95H173.93L173.66 40.32H172.27Z" fill="#FFC20E"/>
    <path d="M174.62 49.27L176.81 38.26H178.19L176.89 44.79C177.47 43.8 178.12 43.01 178.82 42.41C179.52 41.81 180.18 41.52 180.79 41.52C181.23 41.52 181.58 41.71 181.84 42.08C182.1 42.45 182.23 42.87 182.23 43.34C182.23 44.27 181.97 45.24 181.45 46.25C180.93 47.26 180.3 48.05 179.54 48.61C178.79 49.17 177.99 49.44 177.14 49.44C176.98 49.44 176.8 49.42 176.61 49.4C176.42 49.37 176.21 49.33 175.99 49.27H174.61H174.62ZM176.56 46.43L176.21 48.19C176.38 48.27 176.56 48.34 176.73 48.38C176.91 48.42 177.09 48.45 177.27 48.45C177.79 48.45 178.32 48.23 178.87 47.79C179.42 47.35 179.87 46.71 180.23 45.88C180.59 45.05 180.77 44.28 180.77 43.6C180.77 43.39 180.72 43.21 180.63 43.06C180.54 42.92 180.39 42.84 180.21 42.84C179.51 42.84 178.3 44.03 176.57 46.42L176.56 46.43Z" fill="#FFC20E"/>
    <path d="M190.49 41.6999L188.99 49.2699H187.61L188.22 46.1699C187.72 47.0999 187.17 47.8799 186.56 48.4999C185.96 49.1299 185.34 49.4399 184.72 49.4399C184.39 49.4399 184.11 49.3299 183.89 49.0999C183.67 48.8699 183.56 48.4999 183.56 47.9799C183.56 47.6699 183.59 47.3899 183.64 47.1199L184.72 41.6899H186.11L185.02 47.1499C185 47.2599 184.98 47.3899 184.98 47.5199C184.98 47.6799 185.02 47.8199 185.09 47.9099C185.16 48.0099 185.26 48.0499 185.38 48.0499C185.72 48.0499 186.15 47.7399 186.66 47.1099C187.17 46.4899 187.81 45.5599 188.58 44.3399L189.11 41.6699H190.49V41.6999Z" fill="#FFC20E"/>
    <path d="M195.78 49.3C195.45 49.39 195.15 49.44 194.87 49.44C194.22 49.44 193.72 49.29 193.38 48.99C193.03 48.69 192.86 48.3 192.86 47.84C192.86 47.54 192.9 47.18 192.98 46.75L193.78 42.73H192.65L192.85 41.7H193.99L194.26 40.33L195.67 40.16L195.36 41.7H197.29L197.07 42.73H195.16L194.33 46.89C194.25 47.27 194.21 47.53 194.21 47.65C194.21 47.85 194.28 48.02 194.42 48.18C194.56 48.33 194.81 48.41 195.17 48.41C195.41 48.41 195.68 48.36 195.99 48.27L195.79 49.3H195.78Z" fill="#FFC20E"/>
    <path d="M203.44 48.51C202.24 49.13 201.11 49.44 200.05 49.44C199.26 49.44 198.64 49.21 198.21 48.74C197.77 48.27 197.56 47.64 197.56 46.84C197.56 45.97 197.76 45.13 198.16 44.31C198.56 43.5 199.1 42.83 199.79 42.3C200.48 41.77 201.22 41.51 202.03 41.51C202.59 41.51 203.02 41.64 203.31 41.91C203.61 42.18 203.76 42.55 203.76 43.03C203.76 43.6 203.58 44.13 203.21 44.61C202.84 45.09 202.3 45.5 201.58 45.84C200.86 46.18 199.98 46.38 198.95 46.47C198.95 47.12 199.09 47.59 199.37 47.89C199.65 48.19 200.02 48.34 200.47 48.34C200.83 48.34 201.31 48.25 201.91 48.06C202.51 47.87 203.12 47.58 203.72 47.18L203.45 48.5L203.44 48.51ZM199.06 45.44C199.89 45.36 200.53 45.23 200.97 45.04C201.41 44.85 201.76 44.59 202.02 44.28C202.28 43.96 202.41 43.66 202.41 43.36C202.41 43.17 202.33 43 202.18 42.84C202.03 42.68 201.83 42.6 201.6 42.6C201.28 42.6 200.96 42.7 200.64 42.91C200.38 43.07 200.14 43.29 199.92 43.55C199.74 43.76 199.59 43.99 199.45 44.24C199.32 44.49 199.18 44.89 199.05 45.45L199.06 45.44Z" fill="#FFC20E"/>
    <path d="M213.32 49.3C212.99 49.39 212.69 49.44 212.41 49.44C211.76 49.44 211.26 49.29 210.92 48.99C210.57 48.69 210.4 48.3 210.4 47.84C210.4 47.54 210.44 47.18 210.52 46.75L211.32 42.73H210.19L210.39 41.7H211.53L211.8 40.33L213.21 40.16L212.9 41.7H214.83L214.61 42.73H212.7L211.87 46.89C211.79 47.27 211.75 47.53 211.75 47.65C211.75 47.85 211.82 48.02 211.96 48.18C212.1 48.33 212.35 48.41 212.71 48.41C212.95 48.41 213.22 48.36 213.53 48.27L213.33 49.3H213.32Z" fill="#FFC20E"/>
    <path d="M217.56 49.44C216.72 49.44 216.09 49.2 215.68 48.71C215.27 48.22 215.06 47.61 215.06 46.89C215.06 45.99 215.27 45.1 215.71 44.22C216.14 43.34 216.68 42.67 217.33 42.21C217.98 41.75 218.74 41.52 219.61 41.52C220.48 41.52 221.12 41.77 221.52 42.26C221.92 42.75 222.12 43.35 222.12 44.07C222.12 44.96 221.91 45.85 221.48 46.72C221.05 47.59 220.52 48.26 219.88 48.74C219.24 49.22 218.46 49.45 217.56 49.45V49.44ZM217.87 48.41C218.64 48.41 219.3 47.99 219.84 47.15C220.38 46.31 220.66 45.38 220.66 44.36C220.66 43.76 220.54 43.3 220.31 43C220.08 42.7 219.73 42.55 219.27 42.55C218.53 42.55 217.89 42.97 217.34 43.8C216.79 44.63 216.52 45.56 216.52 46.59C216.52 47.19 216.64 47.64 216.86 47.94C217.09 48.25 217.42 48.4 217.85 48.4L217.87 48.41Z" fill="#FFC20E"/>
    <path d="M227.79 49.27L229.98 38.26H231.37L229.18 49.27H227.8H227.79Z" fill="#FFC20E"/>
    <path d="M231.92 49.27L233.42 41.7H234.81L233.3 49.27H231.92ZM233.7 40.32L233.98 38.95H235.36L235.09 40.32H233.7Z" fill="#FFC20E"/>
    <path d="M235.81 52.02L237.66 42.73H236.53L236.74 41.7H237.87L237.94 41.36C238.14 40.32 238.64 39.47 239.43 38.81C239.72 38.56 240.03 38.38 240.34 38.27C240.65 38.15 241.02 38.1 241.44 38.1C241.84 38.1 242.27 38.17 242.74 38.3L242.52 39.39C242.14 39.21 241.74 39.12 241.32 39.12C240.83 39.12 240.41 39.32 240.07 39.7C239.72 40.09 239.47 40.71 239.31 41.55L239.28 41.69H241.37L241.16 42.72H239.08L237.23 52.01H235.85L235.81 52.02Z" fill="#FFC20E"/>
    <path d="M247.31 48.51C246.11 49.13 244.98 49.44 243.92 49.44C243.13 49.44 242.51 49.21 242.08 48.74C241.64 48.27 241.43 47.64 241.43 46.84C241.43 45.97 241.63 45.13 242.03 44.31C242.43 43.5 242.97 42.83 243.66 42.3C244.35 41.77 245.09 41.51 245.9 41.51C246.46 41.51 246.89 41.64 247.18 41.91C247.48 42.18 247.63 42.55 247.63 43.03C247.63 43.6 247.45 44.13 247.08 44.61C246.71 45.09 246.17 45.5 245.45 45.84C244.73 46.18 243.85 46.38 242.82 46.47C242.82 47.12 242.96 47.59 243.24 47.89C243.52 48.19 243.89 48.34 244.34 48.34C244.7 48.34 245.18 48.25 245.78 48.06C246.38 47.87 246.99 47.58 247.59 47.18L247.32 48.5L247.31 48.51ZM242.93 45.44C243.76 45.36 244.4 45.23 244.84 45.04C245.28 44.85 245.63 44.59 245.89 44.28C246.15 43.96 246.28 43.66 246.28 43.36C246.28 43.17 246.2 43 246.05 42.84C245.9 42.68 245.7 42.6 245.47 42.6C245.15 42.6 244.83 42.7 244.51 42.91C244.25 43.07 244.01 43.29 243.79 43.55C243.61 43.76 243.46 43.99 243.32 44.24C243.19 44.49 243.05 44.89 242.92 45.45L242.93 45.44Z" fill="#FFC20E"/>
  </g>
  <defs>
    <clipPath id="clip0_13_8847">
      <rect width="247.76" height="63.11" fill="white"/>
    </clipPath>
  </defs>
</svg>